# xmcd
#
# Track frame offsets:
#	150
#	16293
#	31608
#	47569
#	59242
#	72687
#	88543
#	104233
#	121081
#	132634
#	149628
#	162286
#
# Disc length: 2325 seconds
#
# Revision: 1
# Processed by: cddbd v1.5.2PL0 Copyright (c) Steve Scherf et al.
# Submitted via: audiograbber 1.83.01
#
DISCID=b509130c
DTITLE=Kel_Anne Brandt - I'm A Big Girl Now
DYEAR=1900
DGENRE=Country
TTITLE0=All That Matters
TTITLE1=Sometimes You Win When You Lose
TTITLE2=I'm A Big Girl Now
TTITLE3=Dream
TTITLE4=Go Away Come Back
TTITLE5=Oh Boy
TTITLE6=Top Of My List
TTITLE7=Crazy
TTITLE8=Top Of My List
TTITLE9=Joyful Noise
TTITLE10=I Just Fall In Love
TTITLE11=Rockin' With The Rhythm Of The Rain
EXTD=
EXTT0=
EXTT1=
EXTT2=
EXTT3=
EXTT4=
EXTT5=
EXTT6=
EXTT7=
EXTT8=
EXTT9=
EXTT10=
EXTT11=
PLAYORDER=
